<?xml version="1.0" standalone="no"?>
<!DOCTYPE svg PUBLIC "-//W3C//DTD SVG 20010904//EN"
 "http://www.w3.org/TR/2001/REC-SVG-20010904/DTD/svg10.dtd">
<svg version="1.0" xmlns="http://www.w3.org/2000/svg"
 width="294.000000pt" height="301.000000pt" viewBox="0 0 294.000000 301.000000"
 preserveAspectRatio="xMidYMid meet">

<g transform="translate(0.000000,301.000000) scale(0.100000,-0.100000)"
fill="#000000" stroke="none">
<path d="M635 2648 c19 -249 82 -424 209 -585 63 -79 150 -158 210 -191 30
-16 23 -17 -196 -20 l-228 -2 0 -200 0 -200 222 -2 222 -3 -45 -29 c-24 -16
-68 -52 -98 -80 -178 -169 -275 -389 -296 -678 l-7 -88 191 0 191 0 0 43 c0
57 34 177 73 257 31 63 161 210 187 210 7 0 10 -84 10 -255 l0 -255 200 0 200
0 0 261 0 260 32 -23 c129 -91 215 -241 241 -419 l11 -79 183 0 183 0 0 74 c0
138 -42 311 -105 436 -68 134 -193 279 -291 336 l-49 29 228 3 227 2 0 201 0
200 -221 -1 c-121 -1 -223 1 -225 3 -3 2 17 19 45 36 70 45 201 185 250 269
84 141 141 341 141 496 l0 76 -184 0 -184 0 -6 -64 c-10 -85 -54 -210 -100
-279 -37 -55 -148 -167 -167 -167 -5 0 -9 102 -9 255 l0 255 -200 0 -200 0 0
-255 c0 -294 8 -280 -97 -175 -35 36 -77 92 -98 131 -39 74 -75 200 -75 261
l0 38 -191 0 -190 0 6 -82z"/>
</g>
</svg>
